<svg id="visual" viewBox="0 0 1920 540" width="1920" height="540" xmlns="http://www.w3.org/2000/svg" xmlns:xlink="http://www.w3.org/1999/xlink" version="1.1"><rect x="0" y="0" width="1920" height="540" fill="#ffffff"></rect><path d="M0 249L45.7 263C91.3 277 182.7 305 274.2 317C365.7 329 457.3 325 548.8 327.7C640.3 330.3 731.7 339.7 823 325.8C914.3 312 1005.7 275 1097 264.2C1188.3 253.3 1279.7 268.7 1371.2 287.2C1462.7 305.7 1554.3 327.3 1645.8 318.5C1737.3 309.7 1828.7 270.3 1874.3 250.7L1920 231L1920 0L1874.3 0C1828.7 0 1737.3 0 1645.8 0C1554.3 0 1462.7 0 1371.2 0C1279.7 0 1188.3 0 1097 0C1005.7 0 914.3 0 823 0C731.7 0 640.3 0 548.8 0C457.3 0 365.7 0 274.2 0C182.7 0 91.3 0 45.7 0L0 0Z" fill="#bffdf84d" stroke-linecap="round" stroke-linejoin="miter"></path></svg>